<?xml version="1.0" standalone="no"?><!DOCTYPE svg PUBLIC "-//W3C//DTD SVG 1.1//EN" "http://www.w3.org/Graphics/SVG/1.1/DTD/svg11.dtd"><svg t="1577410054078" class="icon" viewBox="0 0 1024 1024" version="1.1" xmlns="http://www.w3.org/2000/svg" p-id="1241" width="48" height="48" xmlns:xlink="http://www.w3.org/1999/xlink"><defs><style type="text/css"></style></defs><path d="M460.8 937.6c-12.8-22.4-9.6-51.2 9.6-70.4 22.4-22.4 60.8-22.4 83.2 0 19.2 19.2 22.4 48 9.6 70.4l-41.6 80s0 3.2-3.2 3.2c-3.2 3.2-12.8 3.2-16 0 0 0 0-3.2-3.2-3.2l-38.4-80z m92.8-556.8c-22.4 22.4-60.8 22.4-83.2 0-22.4-22.4-22.4-60.8 0-83.2 22.4-22.4 60.8-22.4 83.2 0 22.4 22.4 22.4 60.8 0 83.2z m-198.4-51.2c-28.8 131.2 32 297.6 105.6 409.6h99.2c73.6-112 134.4-278.4 105.6-409.6-16-92.8-80-169.6-153.6-243.2-73.6 73.6-137.6 150.4-156.8 243.2z m-80 384c22.4-12.8 48-22.4 73.6-28.8-16-32-28.8-64-38.4-99.2-25.6 38.4-38.4 80-35.2 128z m473.6 0c0-44.8-12.8-89.6-35.2-128-9.6 35.2-25.6 67.2-38.4 99.2 25.6 6.4 51.2 16 73.6 28.8zM736 313.6c12.8 64 9.6 131.2-3.2 198.4 60.8 67.2 86.4 156.8 70.4 246.4 0 6.4-3.2 12.8-9.6 19.2-3.2 3.2-6.4 6.4-12.8 6.4-12.8 3.2-25.6 3.2-35.2-3.2-25.6-19.2-60.8-35.2-102.4-44.8-12.8 22.4-25.6 41.6-38.4 60.8 3.2 3.2 3.2 3.2 0 3.2-6.4 6.4-16 9.6-25.6 9.6h-137.6c-12.8 0-22.4-6.4-28.8-16-12.8-19.2-25.6-38.4-38.4-60.8-41.6 9.6-76.8 25.6-102.4 44.8-9.6 6.4-22.4 9.6-35.2 3.2-12.8-3.2-19.2-16-22.4-25.6-16-89.6 12.8-179.2 70.4-246.4-9.6-64-12.8-131.2 3.2-195.2 25.6-121.6 108.8-214.4 201.6-304 12.8-12.8 35.2-12.8 51.2 0C624 99.2 710.4 192 736 313.6z" p-id="1242" fill="#d81e06"></path></svg>