<?xml version="1.0" standalone="no"?><!DOCTYPE svg PUBLIC "-//W3C//DTD SVG 1.1//EN" "http://www.w3.org/Graphics/SVG/1.1/DTD/svg11.dtd"><svg class="icon" width="200px" height="200.00px" viewBox="0 0 1024 1024" version="1.1" xmlns="http://www.w3.org/2000/svg"><path fill="#d81e06" d="M622.873502 958.668466h167.769916c15.456859 0 27.960524-12.533016 27.960524-27.960524V539.274154h111.846611c11.304776 0 21.516779-6.811765 25.829167-17.256321a27.919884 27.919884 0 0 0-6.05992-30.471191L530.798395 72.154588c-10.923209-10.920951-28.617542-10.920951-39.540751 0L71.833982 491.5489a27.976328 27.976328 0 0 0-6.062178 30.471191 27.983102 27.983102 0 0 0 25.831424 17.256321H203.449839v391.433788c0 15.427508 12.533016 27.960524 27.960524 27.960524h167.772174c15.454602 0 27.958266-12.533016 27.958266-27.960524v-195.719152h167.772175v195.719152c0 15.427508 12.530758 27.958266 27.960524 27.958266m-223.690965-279.59395c-15.429766 0-27.962782 12.533016-27.962781 27.960524v195.716894h-111.848869v-391.433788c0-15.427508-12.505922-27.960524-27.960524-27.960524H159.10676L511.026891 131.46007l351.922388 351.897552h-72.305861c-15.429766 0-27.960524 12.533016-27.960523 27.960524v391.433788h-111.846612v-195.716894c0-15.427508-12.505922-27.960524-27.962781-27.960524h-223.690965z"  /></svg>