<?xml version="1.0" standalone="no"?><!DOCTYPE svg PUBLIC "-//W3C//DTD SVG 1.1//EN" "http://www.w3.org/Graphics/SVG/1.1/DTD/svg11.dtd"><svg class="icon" width="200px" height="200.00px" viewBox="0 0 1024 1024" version="1.1" xmlns="http://www.w3.org/2000/svg"><path fill="#d81e06" d="M495.20000001 567.03333333c-52.9 0-102.8-20.7-140.4-58.4-37.7-37.7-58.4-87.5-58.4-140.4V331.33333333c0-52.9 20.7-102.8 58.4-140.4 37.7-37.7 87.5-58.4 140.4-58.4s102.8 20.7 140.4 58.4S694.00000001 278.33333333 694.00000001 331.23333333v36.9c0 52.9-20.7 102.8-58.4 140.4-37.6 37.7-87.5 58.5-140.4 58.5z m0-384.6c-82.1 0-148.8 66.8-148.8 148.8v36.9c0 82.1 66.8 148.8 148.8 148.8S644.00000001 450.23333333 644.00000001 368.13333333v-36.9c0-82-66.7-148.8-148.8-148.8z"  /><path fill="#d81e06" d="M495.20000001 887.93333333c-78.4 0-151.9-8.7-206.8-24.5-31.2-9-56.1-20.2-73.8-33.3-29-21.5-35.1-45.2-35.1-61.2 0-34.9 8.7-68.6 25.9-100.3 16.3-30.1 39.5-57 68.9-80 59.3-46.3 137.8-71.8 221-71.8s161.7 25.5 221 71.8c29.4 23 52.6 49.9 68.9 80 17.2 31.7 25.9 65.4 25.9 100.3 0 16.1-6.1 39.8-35.1 61.2-17.8 13.1-42.6 24.3-73.8 33.3-55.1 15.8-128.6 24.5-207 24.5z m0-321.1c-72.1 0-139.7 21.7-190.2 61.2-48.7 38-75.5 88.1-75.5 140.8 0 12.4 19.1 31.1 72.8 46.5 49.8 14.3 120.2 22.5 193 22.5s143.2-8.2 193-22.5c53.7-15.4 72.8-34.1 72.8-46.5 0-52.8-26.8-102.8-75.5-140.8-50.7-39.5-118.3-61.2-190.4-61.2zM496.10000001 483.33333333c-56.3 0-102-45.8-102-102v-25h204.1v25c-0.1 56.2-45.9 102-102.1 102z m-45.7-77.1c8.9 16.1 26 27 45.6 27s36.8-10.9 45.6-27h-91.2z"  /></svg>